<?xml version="1.0" encoding="UTF-8"?>
<!DOCTYPE svg PUBLIC "-//W3C//DTD SVG 1.1//EN" "http://www.w3.org/Graphics/SVG/1.1/DTD/svg11.dtd">
<svg xmlns="http://www.w3.org/2000/svg" version="1.1" width="388px" height="398px" style="shape-rendering:geometricPrecision; text-rendering:geometricPrecision; image-rendering:optimizeQuality; fill-rule:evenodd; clip-rule:evenodd" xmlns:xlink="http://www.w3.org/1999/xlink">
<g><path style="opacity:1" fill="#f9faf9" d="M -0.5,-0.5 C 57.5,-0.5 115.5,-0.5 173.5,-0.5C 99.992,9.99634 47.1587,48.663 15,115.5C 7.02954,134.22 1.86287,153.553 -0.5,173.5C -0.5,115.5 -0.5,57.5 -0.5,-0.5 Z"/></g>
<g><path style="opacity:1" fill="#050505" d="M 173.5,-0.5 C 186.833,-0.5 200.167,-0.5 213.5,-0.5C 288.123,10.396 341.29,50.0627 373,118.5C 380.215,137.03 385.049,156.03 387.5,175.5C 387.5,187.5 387.5,199.5 387.5,211.5C 379.803,276.081 348.469,325.581 293.5,360C 292.365,360.749 291.365,360.583 290.5,359.5C 285.351,348.029 278.351,337.862 269.5,329C 335.743,285.973 359.909,225.806 342,148.5C 320.031,85.8736 276.198,49.3736 210.5,39C 144.778,34.9434 94.2776,60.4434 59,115.5C 35.4555,158.972 32.1221,203.972 49,250.5C 63.3233,284.152 86.1566,310.319 117.5,329C 108.44,338.731 100.94,349.565 95,361.5C 40.2522,327.016 8.4189,277.683 -0.5,213.5C -0.5,200.167 -0.5,186.833 -0.5,173.5C 1.86287,153.553 7.02954,134.22 15,115.5C 47.1587,48.663 99.992,9.99634 173.5,-0.5 Z"/></g>
<g><path style="opacity:1" fill="#f9faf9" d="M 213.5,-0.5 C 271.5,-0.5 329.5,-0.5 387.5,-0.5C 387.5,58.1667 387.5,116.833 387.5,175.5C 385.049,156.03 380.215,137.03 373,118.5C 341.29,50.0627 288.123,10.396 213.5,-0.5 Z"/></g>
<g><path style="opacity:1" fill="#f9f9f9" d="M 387.5,211.5 C 387.5,273.5 387.5,335.5 387.5,397.5C 325.5,397.5 263.5,397.5 201.5,397.5C 217.973,390.559 224.473,378.226 221,360.5C 218.414,351.751 212.914,345.751 204.5,342.5C 203.508,310.907 203.175,279.24 203.5,247.5C 203.334,239.826 203.5,232.159 204,224.5C 222.055,214.577 226.722,200.244 218,181.5C 205.475,166.799 190.975,164.632 174.5,175C 163.456,186.454 161.623,199.288 169,213.5C 172.75,218.083 177.25,221.75 182.5,224.5C 183.5,263.828 183.833,303.161 183.5,342.5C 171.209,346.869 164.876,355.703 164.5,369C 165.214,383.204 172.214,392.704 185.5,397.5C 123.5,397.5 61.5,397.5 -0.5,397.5C -0.5,336.167 -0.5,274.833 -0.5,213.5C 8.4189,277.683 40.2522,327.016 95,361.5C 100.94,349.565 108.44,338.731 117.5,329C 86.1566,310.319 63.3233,284.152 49,250.5C 32.1221,203.972 35.4555,158.972 59,115.5C 94.2776,60.4434 144.778,34.9434 210.5,39C 276.198,49.3736 320.031,85.8736 342,148.5C 359.909,225.806 335.743,285.973 269.5,329C 278.351,337.862 285.351,348.029 290.5,359.5C 291.365,360.583 292.365,360.749 293.5,360C 348.469,325.581 379.803,276.081 387.5,211.5 Z"/></g>
<g><path style="opacity:1" fill="#050505" d="M 184.5,85.5 C 236.295,84.6279 272.795,107.628 294,154.5C 309.736,204.611 297.569,246.444 257.5,280C 247.111,287.361 235.778,292.861 223.5,296.5C 222.353,296.182 221.519,295.516 221,294.5C 218.226,282.992 219.56,271.992 225,261.5C 225.903,260.299 227.069,259.465 228.5,259C 235.167,258.667 241.833,258.333 248.5,258C 253.304,256.782 256.637,253.949 258.5,249.5C 256.657,244.235 257.324,239.401 260.5,235C 260.104,233.103 259.104,231.603 257.5,230.5C 259.272,229.73 260.272,228.397 260.5,226.5C 258.132,221.392 259.466,217.892 264.5,216C 265.804,215.196 266.471,214.029 266.5,212.5C 263.863,205.893 260.696,199.56 257,193.5C 253.372,160.545 235.539,140.045 203.5,132C 159.652,130.013 135.319,150.847 130.5,194.5C 131.091,206.77 134.591,218.104 141,228.5C 145.967,234.469 151.301,240.135 157,245.5C 158,247.5 159,249.5 160,251.5C 163.648,267.016 163.315,282.349 159,297.5C 148.121,291.977 137.621,285.811 127.5,279C 91.959,249.046 79.1257,211.213 89,165.5C 104.054,118.599 135.888,91.9321 184.5,85.5 Z"/></g>
<g><path style="opacity:1" fill="#050505" d="M 203.5,247.5 C 202.833,263.163 202.5,278.996 202.5,295C 202.501,311.181 203.167,327.014 204.5,342.5C 212.914,345.751 218.414,351.751 221,360.5C 224.473,378.226 217.973,390.559 201.5,397.5C 196.167,397.5 190.833,397.5 185.5,397.5C 172.214,392.704 165.214,383.204 164.5,369C 164.876,355.703 171.209,346.869 183.5,342.5C 183.833,303.161 183.5,263.828 182.5,224.5C 177.25,221.75 172.75,218.083 169,213.5C 161.623,199.288 163.456,186.454 174.5,175C 190.975,164.632 205.475,166.799 218,181.5C 226.722,200.244 222.055,214.577 204,224.5C 203.5,232.159 203.334,239.826 203.5,247.5 Z"/></g>
<g><path style="opacity:1" fill="#565656" d="M 203.5,247.5 C 203.175,279.24 203.508,310.907 204.5,342.5C 203.167,327.014 202.501,311.181 202.5,295C 202.5,278.996 202.833,263.163 203.5,247.5 Z"/></g>
</svg>
